<?xml version="1.0" encoding="UTF-8"?>
<!DOCTYPE svg PUBLIC "-//W3C//DTD SVG 1.1//EN" "http://www.w3.org/Graphics/SVG/1.1/DTD/svg11.dtd">
<!-- Creator: CorelDRAW 2019 (64 Bit) -->
<svg xmlns="http://www.w3.org/2000/svg" xml:space="preserve" width="100mm" height="80mm" version="1.1" style="shape-rendering:geometricPrecision; text-rendering:geometricPrecision; image-rendering:optimizeQuality; fill-rule:evenodd; clip-rule:evenodd"
viewBox="0 0 10000 8000"
 xmlns:xlink="http://www.w3.org/1999/xlink">
 <defs>
  <style type="text/css">
   <![CDATA[
    .fil4 {fill:#33854C;fill-rule:nonzero}
    .fil5 {fill:#379050;fill-rule:nonzero}
    .fil6 {fill:#49A054;fill-rule:nonzero}
    .fil3 {fill:#A5C7DD;fill-rule:nonzero}
    .fil0 {fill:#AAD0E2;fill-rule:nonzero}
    .fil1 {fill:#B3D5E3;fill-rule:nonzero}
    .fil2 {fill:#C3DEE8;fill-rule:nonzero}
   ]]>
  </style>
 </defs>
 <g id="Camada_x0020_1">
  <metadata id="CorelCorpID_0Corel-Layer"/>
  <g id="_2779831775728">
   <path class="fil0" d="M8006.5 1960.2c-39.74,0 -79.12,1.47 -118.17,4.13 -132.02,-766.94 -800.26,-1350.48 -1604.89,-1350.48 -367.98,0 -707.4,122.09 -980.11,327.9 -294.74,-519.91 -853.04,-870.78 -1493.36,-870.78 -947.45,0 -1715.51,768.07 -1715.51,1715.52 0,60.03 3.12,119.36 9.13,177.81 -38.91,-2.64 -78.14,-4.1 -117.7,-4.1 -947.46,0 -1715.52,768.06 -1715.52,1715.51 0,947.46 768.06,1715.52 1715.52,1715.52l6020.61 0c947.46,0 1715.52,-768.06 1715.52,-1715.52 0,-947.45 -768.06,-1715.51 -1715.52,-1715.51z"/>
   <path class="fil1" d="M8006.5 1960.2c-39.74,0 -79.12,1.47 -118.17,4.13 -132.02,-766.94 -800.26,-1350.48 -1604.89,-1350.48 -367.98,0 -707.4,122.09 -980.11,327.9 -294.74,-519.91 -853.04,-870.78 -1493.36,-870.78 -947.45,0 -1715.51,768.07 -1715.51,1715.52 0,60.03 3.12,119.36 9.13,177.81 -38.91,-2.64 -78.14,-4.1 -117.7,-4.1 -947.46,0 -1715.52,768.06 -1715.52,1715.51 0,947.46 768.06,1715.52 1715.52,1715.52l6020.61 0c947.46,0 1715.52,-768.06 1715.52,-1715.52 0,-947.45 -768.06,-1715.51 -1715.52,-1715.51z"/>
   <path class="fil2" d="M4506.13 451.25c-158.88,-50.76 -328.2,-78.21 -503.95,-78.21 -914.26,0 -1655.4,741.14 -1655.4,1655.41 0,57.94 3,115.18 8.8,171.58 -37.54,-2.54 -75.39,-3.96 -113.57,-3.96 -914.27,0 -1655.42,741.16 -1655.42,1655.43 0,300.27 80.04,581.78 219.86,824.52 -63.18,-746.9 49.86,-2172.92 1840.12,-2138.02 -18.28,-487.66 68.17,-2016.43 1859.56,-2086.75z"/>
   <path class="fil3" d="M2815.42 5391.23l5191.08 0c947.46,0 1715.52,-768.06 1715.52,-1715.52 0,-202.32 -35.3,-396.36 -99.61,-576.59 -1128.03,2221.6 -4943.04,2024.94 -6806.99,2292.11z"/>
   <polygon class="fil4" points="5970.03,6128.95 5970.03,3964.55 4022.37,3964.55 4022.37,6128.95 3186.65,6128.95 4996.2,7938.5 6805.74,6128.95 "/>
   <path class="fil5" d="M4022.37 5272.22l0 119.01 1947.66 0 0 -322.12c-669.22,101.81 -1342.35,154.67 -1947.66,203.11z"/>
   <polygon class="fil6" points="5970.03,5391.23 4022.37,5391.23 4022.37,6128.95 3186.66,6128.95 4996.2,7938.5 6805.74,6128.95 5970.03,6128.95 "/>
   <polygon class="fil5" points="4996.2,7938.5 4715.16,7657.45 6805.74,6128.95 "/>
  </g>
 </g>
</svg>
